<?xml version="1.0" standalone="no"?>
<!DOCTYPE svg PUBLIC "-//W3C//DTD SVG 20010904//EN"
 "http://www.w3.org/TR/2001/REC-SVG-20010904/DTD/svg10.dtd">
<svg version="1.0" xmlns="http://www.w3.org/2000/svg"
 width="50.000000pt" height="50.000000pt" viewBox="0 0 50.000000 50.000000"
 preserveAspectRatio="xMidYMid meet">

<g transform="translate(0.000000,50.000000) scale(0.100000,-0.100000)"
fill="#000000" stroke="none">
<path d="M210 470 c-178 -33 -245 -259 -113 -381 46 -43 91 -61 153 -61 126 0
222 96 221 223 0 140 -125 245 -261 219z m141 -33 c64 -34 102 -93 107 -166 5
-62 -7 -112 -36 -148 l-17 -23 -50 19 c-58 22 -68 48 -39 103 10 18 19 57 21
86 3 45 0 56 -21 77 -33 33 -104 35 -131 4 -26 -28 -27 -123 -2 -166 10 -18
17 -44 15 -59 -2 -21 -12 -30 -52 -45 -27 -10 -53 -16 -58 -13 -24 15 -48 87
-48 144 0 127 80 209 206 210 45 0 72 -6 105 -23z"/>
</g>
</svg>
